<svg width="116" height="121" viewBox="0 0 116 121" fill="none" xmlns="http://www.w3.org/2000/svg">
<g clip-path="url(#clip0_4_242)">
<path d="M47.9036 21.3727C49.1487 18.875 50.3087 16.329 51.6597 13.89C53.3424 10.8503 55.1796 7.89523 56.9631 4.91079C57.161 4.5811 57.6281 4.02012 57.6525 4.03566C58.4183 4.54831 59.4046 4.96775 59.837 5.7048C62.8481 10.8348 65.7412 16.0338 68.6777 21.207C68.7298 21.2984 68.8548 21.3519 68.9451 21.421C69.1882 23.8945 71.3884 25.2322 72.3973 27.2898C73.9237 30.4002 75.7505 33.3639 77.4645 36.3811C79.4216 39.8247 81.389 43.2631 83.3652 46.6964C85.5081 50.4161 87.6648 54.1272 89.8164 57.8435C86.8417 64.1231 83.2628 70.054 79.3434 75.7881C79.1715 75.7761 78.9978 75.764 78.8259 75.7536C77.2995 72.9504 75.82 70.1231 74.2363 67.3527C72.281 63.9281 70.2596 60.538 68.2296 57.1548C66.7623 54.7107 65.1595 52.3442 63.7529 49.8655C61.9365 46.6687 60.6896 43.144 58.1595 40.3633C58.064 39.7212 58.2342 38.9496 57.3399 38.6941C54.5198 32.7442 50.0725 27.6712 47.9019 21.3727H47.9036Z" fill="#84E8F8"/>
<path d="M6.59202 91.8064C7.52106 90.2926 8.49178 88.803 9.37046 87.2598C11.4769 83.5608 13.5381 79.8376 15.6185 76.123C17.5617 72.7415 19.4805 69.3446 21.4532 65.9804C23.9503 61.7186 26.4874 57.481 29.0141 53.2366C31.631 48.8402 34.2549 44.4472 36.8753 40.0526C43.2154 40.0526 49.5572 40.0301 55.8972 40.0888C56.4807 40.094 57.059 40.6049 57.639 40.8811C57.1267 41.7631 56.4286 42.5295 55.9163 43.4115C55.6026 43.9516 55.569 43.9394 55.3572 44.3126C53.289 47.9564 51.2433 51.6106 49.1491 55.2388C46.678 59.5161 44.1548 63.7641 41.6768 68.0379C40.3848 70.2646 39.1415 72.5189 37.8773 74.7594C36.7729 74.8647 36.7607 75.6414 36.818 76.4613C36.8232 76.5114 36.8267 76.5614 36.8302 76.6132C36.5332 76.9705 36.1807 77.295 35.9515 77.6903C33.9215 81.1718 31.8602 84.6379 29.917 88.1677C28.8317 90.1372 27.9496 92.2189 26.9754 94.2488C24.8377 94.2557 22.7 94.2868 20.5641 94.2644C15.523 94.2126 10.4818 94.1332 5.43896 94.0659C5.56747 93.6222 5.69597 93.1786 5.82447 92.7368C6.4913 92.7626 6.77435 92.4761 6.59549 91.8081L6.59202 91.8064Z" fill="#00B4FF"/>
<path d="M36.8281 76.6115C36.8246 76.5614 36.8211 76.5113 36.8159 76.4613C49.3328 76.4665 61.8497 76.4734 74.3683 76.4613C74.7521 76.4613 75.1376 76.2455 75.5214 76.1299C76.6241 76.0056 77.725 75.8796 78.8277 75.7553C78.9996 75.7674 79.1733 75.7795 79.3452 75.7898C79.8731 76.0125 80.3993 76.425 80.9272 76.4285C87.5694 76.4751 94.2116 76.4613 100.854 76.4647C102.479 79.2817 104.108 82.097 105.73 84.914C107.392 87.7983 109.048 90.6844 110.707 93.5687C110.431 93.8207 110.155 94.071 109.88 94.323C103.538 94.3317 97.195 94.3247 90.8532 94.3817C90.3826 94.3852 89.9172 94.8374 89.4483 95.0808L89.417 95.1015C88.7433 94.8754 88.0678 94.4525 87.394 94.4525C74.0679 94.4628 60.7435 94.5233 47.4174 94.5716C46.6169 93.3202 45.7712 92.0946 45.0245 90.8121C42.2738 86.0895 39.5562 81.3479 36.8246 76.6132L36.8281 76.6115Z" fill="#0189FF"/>
<path d="M36.875 40.0526C34.2546 44.4472 31.6307 48.8402 29.0137 53.2366C26.4871 57.481 23.95 61.7186 21.4529 65.9804C19.4802 69.3463 17.5613 72.7415 15.6182 76.123C13.3277 72.4654 10.5892 68.9924 8.9447 65.0656C8.18236 63.2462 7.00326 61.8584 6.02386 60.3533C4.22655 57.595 5.95787 55.9017 7.16823 53.8838C9.34062 50.2607 11.4262 46.5859 13.5847 42.9559C16.3631 38.285 19.1919 33.6418 21.9721 28.9727C22.6424 27.8473 23.212 26.6632 23.8285 25.5067C23.8285 25.5067 24.0508 25.1148 24.3113 24.597C24.485 24.2518 24.6273 24.1068 24.7037 23.7806C24.9051 23.5786 25.1066 23.3749 25.308 23.173C25.8394 22.5291 25.558 21.0464 27.1053 21.4503C30.3648 27.4848 33.6225 33.5192 36.8819 39.5537C36.8802 39.7194 36.8785 39.8851 36.875 40.0508V40.0526Z" fill="#6F70FC"/>
<path d="M89.8186 57.8453C87.667 54.1307 85.5103 50.4196 83.3674 46.6981C81.3912 43.2648 79.4237 39.8264 77.4667 36.3829C75.751 33.3656 73.9259 30.4002 72.3995 27.2915C71.3906 25.2339 69.1886 23.8962 68.9473 21.4227C75.7579 21.3675 82.5703 21.3485 89.381 21.2328C91.0671 21.2035 90.7667 22.7415 91.2634 23.4785C93.6285 26.998 95.7835 30.6643 97.8917 34.3478C101.429 40.5324 104.874 46.7706 108.359 52.9845C109.266 54.6036 110.174 56.221 111.081 57.8384C103.994 57.8401 96.9071 57.8418 89.8203 57.8435L89.8186 57.8453Z" fill="#6F70FC"/>
<path d="M47.421 94.5716C60.7471 94.5216 74.0715 94.4629 87.3976 94.4525C88.0714 94.4525 88.7451 94.8754 89.4206 95.1015C87.8838 97.9686 86.3835 100.855 84.8015 103.696C83.3793 106.25 81.9657 108.819 80.3403 111.242C79.8506 111.971 79.4512 113.063 78.0203 113.056C64.7168 112.994 51.4133 113.024 38.1097 112.998C37.6756 112.998 37.2432 112.699 36.8091 112.539C37.2762 112.218 38.141 111.902 38.1462 111.577C38.1757 109.142 40.1588 107.659 41.0479 105.653C42.7654 101.782 45.2538 98.2465 47.4227 94.5716H47.421ZM57.2167 111.323C51.4636 111.323 45.7105 111.318 39.9574 111.339C39.6761 111.339 39.3965 111.555 39.1169 111.67C39.4 111.784 39.6813 111.997 39.9644 111.997C51.4706 112.014 62.9768 112.014 74.483 111.997C74.7644 111.997 75.0439 111.779 75.3235 111.664C75.0405 111.55 74.7591 111.339 74.4761 111.339C68.723 111.32 62.9699 111.325 57.2167 111.325V111.323Z" fill="#6F70FC"/>
<path d="M89.8182 57.8453C96.905 57.8435 103.992 57.8418 111.079 57.8401C110.085 59.8579 109.092 61.8757 108.099 63.8918C107.902 63.9919 107.706 64.0938 107.51 64.1956C105.291 68.2848 103.073 72.3756 100.854 76.4648C94.2116 76.463 87.5694 76.4751 80.9272 76.4285C80.3975 76.4251 79.8731 76.0125 79.3452 75.7899C83.2646 70.0557 86.8435 64.1248 89.8182 57.8453Z" fill="#5842FE"/>
<path d="M47.4212 94.5716C45.2523 98.2464 42.7656 101.78 41.0464 105.653C40.1556 107.659 38.1742 109.142 38.1447 111.577C38.1412 111.903 37.2747 112.219 36.8075 112.539C35.7066 110.609 34.6577 108.65 33.4925 106.76C32.1328 104.554 30.622 102.437 29.2745 100.225C28.4844 98.9265 27.9096 97.499 27.1854 96.1579C26.9632 95.7453 26.569 95.426 26.2529 95.0635C26.4926 94.7925 26.7322 94.5198 26.9701 94.2488C27.9443 92.2172 28.8265 90.1372 29.9118 88.1677C31.8567 84.6378 33.9162 81.1718 35.9462 77.6902C36.1772 77.295 36.5297 76.9705 36.8249 76.6132C39.5547 81.3479 42.2741 86.0895 45.0248 90.8121C45.7715 92.0946 46.6172 93.3201 47.4177 94.5716H47.4212Z" fill="#5842FE"/>
<path d="M36.8821 39.5554C33.6227 33.521 30.3649 27.4865 27.1055 21.4521C27.6403 21.383 28.1752 21.3157 28.71 21.2466C29.1962 21.2794 29.6842 21.314 30.1704 21.3485C36.0816 21.3571 41.9927 21.3657 47.9039 21.3726C50.0745 27.6712 54.5218 32.7442 57.3419 38.6941C56.9512 38.8685 56.5604 39.1947 56.168 39.1964C50.658 39.2292 45.148 39.2016 39.638 39.2309C38.7194 39.2361 37.8007 39.4415 36.8821 39.5537V39.5554Z" fill="#5842FE"/>
<path d="M26.9717 94.2471C26.7321 94.5181 26.4924 94.7908 26.2545 95.0618C19.43 95.0704 12.6054 95.0825 5.78087 95.079C5.55339 95.079 5.3259 94.934 5.09668 94.8564C5.20955 94.5923 5.32243 94.3282 5.4353 94.0641C10.4764 94.1314 15.5176 94.2091 20.5605 94.2626C22.6981 94.285 24.8358 94.254 26.9717 94.2471Z" fill="#84E8F8"/>
<path d="M89.4502 95.079C89.9191 94.8357 90.3845 94.3834 90.8551 94.38C97.1968 94.3247 103.539 94.3316 109.882 94.323C110.176 94.3385 110.467 94.3541 110.761 94.3696C110.858 94.9375 110.615 95.1136 110.045 95.1118C103.181 95.0894 96.3164 95.0877 89.4519 95.079H89.4502Z" fill="#84E8F8"/>
<path d="M6.59189 91.8064C6.77075 92.4744 6.4877 92.7609 5.82087 92.735C5.62117 92.0515 5.86949 91.7356 6.59189 91.8064Z" fill="#84E8F8"/>
<path d="M110.759 94.3696C110.466 94.3541 110.174 94.3386 109.88 94.323C110.156 94.071 110.433 93.819 110.707 93.5687C110.724 93.8363 110.742 94.1038 110.757 94.3714L110.759 94.3696Z" fill="#6F70FC"/>
<path d="M107.51 64.1939C107.706 64.092 107.903 63.9919 108.099 63.8901C108.029 64.0989 107.96 64.3061 107.891 64.5149C107.764 64.4079 107.637 64.3009 107.51 64.1939Z" fill="#84E8F8"/>
<path d="M25.3079 23.1747C25.1065 23.3784 24.9051 23.5803 24.7036 23.7823C24.9051 23.5786 25.1065 23.3766 25.3079 23.1747Z" fill="#84E8F8"/>
<path d="M58.1613 40.3632C57.9877 40.5358 57.8123 40.7084 57.6387 40.8811C57.0587 40.6049 56.4804 40.0939 55.8969 40.0888C49.5569 40.0318 43.2151 40.0525 36.875 40.0525C36.8767 39.8868 36.8785 39.7211 36.8819 39.5554C37.8006 39.4432 38.7192 39.2361 39.6378 39.2326C45.1478 39.2033 50.6578 39.2292 56.1678 39.1981C56.5603 39.1964 56.9492 38.8701 57.3417 38.6958C58.236 38.9513 58.0676 39.7211 58.1613 40.3649V40.3632Z" fill="#0189FF"/>
<path d="M37.8751 74.7594C37.8751 75.631 38.4274 75.7484 39.1463 75.7484C50.8505 75.7398 62.5529 75.7381 74.2571 75.7588C74.6791 75.7588 75.0993 76.0004 75.5196 76.1282C75.1358 76.2438 74.7503 76.4596 74.3665 76.4596C61.8496 76.4734 49.3328 76.4647 36.8141 76.4596C36.7568 75.6397 36.769 74.8629 37.8734 74.7576L37.8751 74.7594Z" fill="#84E8F8"/>
<path d="M57.2151 111.323C62.9682 111.323 68.7213 111.318 74.4744 111.337C74.7575 111.337 75.0388 111.55 75.3218 111.662C75.0422 111.777 74.7609 111.993 74.4813 111.995C62.9751 112.012 51.4689 112.012 39.9627 111.995C39.6796 111.995 39.3983 111.783 39.1152 111.669C39.3948 111.553 39.6761 111.339 39.9557 111.337C45.7088 111.318 51.4619 111.322 57.2151 111.322V111.323Z" fill="#5842FE"/>
</g>
<defs>
<clipPath id="clip0_4_242">
<rect width="116" height="121" fill="white"/>
</clipPath>
</defs>
</svg>
