<svg width="1440" height="1024" viewBox="0 0 1440 1024" fill="none" xmlns="http://www.w3.org/2000/svg">
<path d="M476.686 614.569C473.256 616.51 469.827 618.45 466.393 620.38C473.782 617.028 481.168 613.662 488.538 610.274C484.59 611.71 480.638 613.143 476.686 614.569ZM448.902 628.602C445.696 630.789 442.487 632.972 439.281 635.148C446.233 631.3 453.177 627.43 460.114 623.542C456.379 625.229 452.644 626.922 448.902 628.598V628.602ZM461.445 620.033C457.747 622.566 454.048 625.089 450.346 627.616C454.64 625.69 458.93 623.749 463.217 621.809C467.128 619.611 471.036 617.406 474.948 615.198C470.452 616.817 465.948 618.425 461.441 620.033H461.445ZM423.021 644.461C420.007 646.926 416.992 649.385 413.978 651.84C420.492 647.48 426.995 643.099 433.499 638.697C430.01 640.623 426.517 642.545 423.021 644.461ZM434.554 634.991C431.135 637.803 427.72 640.616 424.301 643.414C428.304 641.219 432.3 639.008 436.3 636.799C439.969 634.312 443.637 631.822 447.306 629.324C443.06 631.225 438.807 633.108 434.554 634.991ZM446.067 625.5C442.524 628.427 438.983 631.346 435.44 634.262C439.877 632.293 444.314 630.324 448.744 628.341C452.604 625.711 456.46 623.077 460.316 620.437C455.57 622.13 450.824 623.824 446.067 625.5ZM398.909 662.245C396.134 664.968 393.355 667.691 390.575 670.407C396.623 665.544 402.666 660.659 408.706 655.749C405.446 657.925 402.177 660.083 398.909 662.245ZM409.5 651.84C406.357 654.934 403.214 658.022 400.071 661.102C403.795 658.629 407.523 656.16 411.243 653.673C414.68 650.875 418.117 648.073 421.551 645.261C417.537 647.459 413.522 649.656 409.5 651.84ZM420.136 641.352C416.853 644.596 413.574 647.827 410.291 651.061C414.478 648.788 418.661 646.501 422.841 644.21C426.392 641.302 429.944 638.382 433.499 635.459C429.047 637.432 424.595 639.397 420.136 641.355V641.352ZM430.723 630.867C427.392 634.169 424.065 637.467 420.738 640.755C425.293 638.757 429.841 636.746 434.384 634.73C437.998 631.757 441.616 628.777 445.229 625.793C440.399 627.494 435.565 629.184 430.723 630.867ZM376.657 681.942C374.132 684.908 371.606 687.867 369.077 690.825C374.65 685.455 380.22 680.055 385.785 674.634C382.741 677.075 379.701 679.519 376.657 681.945V681.942ZM386.34 670.536C383.462 673.934 380.584 677.332 377.705 680.716C381.164 677.958 384.62 675.181 388.076 672.408C391.233 669.328 394.391 666.24 397.549 663.149C393.814 665.622 390.079 668.084 386.344 670.539L386.34 670.536ZM396.005 659.115C393.016 662.653 390.028 666.187 387.043 669.71C390.932 667.152 394.821 664.582 398.707 662.01C401.975 658.804 405.247 655.595 408.515 652.379C404.35 654.638 400.178 656.878 396.005 659.119V659.115ZM405.644 647.691C402.608 651.293 399.575 654.888 396.542 658.475C400.799 656.188 405.056 653.901 409.309 651.593C412.655 648.298 416 645 419.349 641.695C414.783 643.696 410.221 645.704 405.644 647.687V647.691ZM415.338 636.181C412.25 639.851 409.17 643.506 406.089 647.166C410.717 645.157 415.334 643.128 419.955 641.102C423.319 637.778 426.683 634.444 430.047 631.107C425.15 632.811 420.246 634.498 415.338 636.181ZM356.328 703.482C354.038 706.716 351.751 709.947 349.465 713.166C354.545 707.299 359.618 701.41 364.695 695.485C361.909 698.161 359.118 700.82 356.332 703.482H356.328ZM365.037 691.151C362.442 694.831 359.85 698.501 357.258 702.167C360.431 699.137 363.603 696.1 366.776 693.048C369.651 689.685 372.529 686.316 375.407 682.935C371.956 685.683 368.496 688.42 365.041 691.151H365.037ZM373.727 678.794C371.036 682.624 368.349 686.448 365.658 690.264C369.254 687.423 372.845 684.583 376.437 681.724C379.433 678.204 382.429 674.67 385.429 671.132C381.528 673.691 377.632 676.253 373.727 678.79V678.794ZM382.455 666.351C379.701 670.278 376.951 674.205 374.202 678.118C378.183 675.528 382.157 672.915 386.131 670.303C389.175 666.712 392.219 663.114 395.263 659.508C390.998 661.799 386.726 664.078 382.455 666.348V666.351ZM391.171 653.909C388.392 657.875 385.616 661.842 382.841 665.801C387.164 663.503 391.483 661.191 395.803 658.876C398.869 655.245 401.938 651.607 405.012 647.963C400.406 649.956 395.788 651.932 391.171 653.909ZM396.652 646.079L391.505 653.43C396.156 651.439 400.81 649.449 405.453 647.437C408.559 643.753 411.666 640.065 414.776 636.37C409.817 638.071 404.861 639.772 399.891 641.455L396.652 646.079ZM384.422 646.64C381.907 650.982 379.396 655.317 376.893 659.647C381.591 657.664 386.282 655.67 390.965 653.662L396.395 645.908L399.398 641.62C394.413 643.306 389.417 644.975 384.422 646.64ZM337.863 726.977C335.841 730.443 333.823 733.91 331.801 737.358C336.37 731.008 340.932 724.619 345.498 718.208C342.954 721.138 340.41 724.065 337.863 726.981V726.977ZM345.619 713.659C343.307 717.636 340.995 721.61 338.682 725.573C341.576 722.257 344.469 718.923 347.358 715.589C349.957 711.933 352.56 708.267 355.159 704.594C351.979 707.624 348.799 710.647 345.616 713.659H345.619ZM353.369 700.309C350.968 704.454 348.568 708.589 346.167 712.716C349.476 709.582 352.784 706.434 356.093 703.279C358.787 699.469 361.486 695.653 364.184 691.826C360.581 694.667 356.979 697.49 353.372 700.309H353.369ZM361.111 686.937C358.666 691.165 356.225 695.381 353.784 699.594C357.46 696.718 361.137 693.834 364.809 690.936C367.551 687.045 370.294 683.143 373.04 679.237C369.07 681.817 365.096 684.379 361.115 686.937H361.111ZM368.853 673.548C366.382 677.825 363.912 682.096 361.449 686.355C365.471 683.768 369.492 681.177 373.507 678.569C376.286 674.613 379.069 670.643 381.852 666.669C377.521 668.97 373.191 671.272 368.853 673.548ZM369.864 671.801L369.14 673.055C373.514 670.761 377.874 668.438 382.242 666.119C385.035 662.135 387.833 658.14 390.631 654.141C385.969 656.135 381.304 658.115 376.635 660.087C374.374 663.993 372.114 667.906 369.86 671.801H369.864ZM355.236 680.638C353.049 685.272 350.869 689.896 348.689 694.517C352.755 691.929 356.817 689.335 360.876 686.727C363.361 682.431 365.849 678.125 368.338 673.816C363.975 676.107 359.604 678.372 355.233 680.638H355.236ZM362.052 666.226C359.846 670.882 357.648 675.538 355.453 680.18C359.846 677.9 364.243 675.624 368.629 673.323L369.595 671.654C371.779 667.873 373.974 664.078 376.168 660.291C371.467 662.278 366.768 664.264 362.056 666.226H362.052ZM368.901 651.765C366.673 656.456 364.46 661.134 362.247 665.815C366.978 663.846 371.698 661.845 376.418 659.851C378.933 655.502 381.451 651.15 383.977 646.794C378.959 648.466 373.93 650.117 368.901 651.765ZM321.342 752.359C319.581 756.061 317.816 759.756 316.055 763.444C320.099 756.636 324.139 749.79 328.176 742.915C325.897 746.07 323.621 749.222 321.342 752.359ZM328.102 738.116C326.095 742.354 324.088 746.595 322.081 750.812C324.669 747.249 327.253 743.679 329.837 740.095C332.154 736.143 334.473 732.177 336.793 728.206C333.9 731.515 331.007 734.824 328.106 738.112L328.102 738.116ZM334.878 723.793C332.778 728.235 330.683 732.67 328.588 737.094C331.598 733.677 334.606 730.243 337.613 726.802C340.017 722.682 342.421 718.551 344.829 714.413C341.513 717.547 338.197 720.681 334.878 723.793ZM341.66 709.425C339.517 713.97 337.374 718.508 335.234 723.036C338.62 719.863 341.998 716.664 345.373 713.47C347.818 709.264 350.266 705.047 352.714 700.824C349.035 703.7 345.347 706.57 341.66 709.425ZM346.575 699.005C345.031 702.282 343.491 705.548 341.947 708.814C345.678 705.926 349.406 703.021 353.13 700.109C355.6 695.849 358.067 691.586 360.541 687.309C356.512 689.896 352.483 692.469 348.446 695.035L346.575 699.001V699.005ZM335.727 703.082C333.848 708.045 331.984 712.991 330.113 717.94C333.885 715.053 337.646 712.141 341.41 709.232L346.292 698.88L347.957 695.353C343.884 697.94 339.811 700.523 335.727 703.086V703.082ZM341.572 687.666C339.679 692.651 337.789 697.64 335.907 702.607C340.009 700.03 344.108 697.432 348.2 694.827C350.391 690.182 352.586 685.533 354.78 680.873C350.384 683.15 345.98 685.412 341.572 687.663V687.666ZM347.435 672.254C345.527 677.254 343.63 682.246 341.734 687.238C346.16 684.976 350.582 682.703 355.001 680.416C357.203 675.749 359.412 671.075 361.625 666.401C356.902 668.367 352.17 670.314 347.435 672.254ZM353.325 656.839C351.402 661.852 349.494 666.859 347.586 671.861C352.336 669.914 357.082 667.963 361.82 665.99C364.041 661.295 366.261 656.603 368.493 651.897C363.438 653.551 358.387 655.209 353.321 656.839H353.325ZM306.758 779.624C305.255 783.573 303.748 787.503 302.244 791.434C305.762 784.177 309.277 776.887 312.787 769.558C310.78 772.927 308.769 776.272 306.758 779.624ZM312.545 764.398C310.824 768.932 309.104 773.456 307.387 777.97C309.692 774.125 311.997 770.269 314.302 766.399C316.313 762.193 318.324 757.973 320.335 753.749C317.743 757.315 315.144 760.857 312.548 764.398H312.545ZM318.324 749.132C316.533 753.867 314.743 758.598 312.956 763.308C315.662 759.617 318.368 755.915 321.07 752.198C323.165 747.796 325.261 743.376 327.356 738.955C324.349 742.361 321.338 745.748 318.324 749.132ZM324.11 733.824C322.283 738.662 320.456 743.501 318.633 748.321C321.702 744.869 324.772 741.421 327.838 737.944C329.977 733.427 332.12 728.896 334.264 724.362C330.882 727.528 327.499 730.683 324.11 733.824ZM326.474 727.57L324.356 733.174C327.783 729.997 331.201 726.809 334.62 723.608C336.785 719.026 338.951 714.435 341.12 709.839C337.385 712.727 333.65 715.617 329.907 718.483C328.764 721.514 327.613 724.551 326.474 727.57ZM318.121 727.424C316.566 732.691 315.019 737.951 313.471 743.201C316.93 740.027 320.39 736.851 323.842 733.652L326.18 727.463C327.26 724.597 328.352 721.71 329.44 718.833C325.672 721.714 321.897 724.569 318.121 727.42V727.424ZM322.959 711.058C321.39 716.357 319.827 721.646 318.265 726.927C322.059 724.061 325.853 721.188 329.639 718.294C331.521 713.316 333.396 708.346 335.286 703.354C331.179 705.93 327.073 708.506 322.959 711.054V711.058ZM327.838 694.645C326.25 699.973 324.669 705.298 323.092 710.611C327.224 708.053 331.345 705.469 335.466 702.878C337.355 697.886 339.256 692.88 341.156 687.874C336.719 690.139 332.282 692.401 327.838 694.642V694.645ZM332.749 678.222C331.146 683.568 329.547 688.906 327.955 694.245C332.418 691.997 336.866 689.725 341.318 687.452C343.219 682.446 345.123 677.436 347.035 672.419C342.278 674.37 337.517 676.299 332.749 678.222ZM337.697 661.817C336.076 667.162 334.466 672.508 332.863 677.847C337.642 675.917 342.421 673.98 347.185 672.026C349.101 667.009 351.012 661.988 352.939 656.96C347.866 658.593 342.781 660.208 337.697 661.817ZM294.116 808.819C292.881 812.974 291.649 817.12 290.414 821.254C293.406 813.557 296.395 805.824 299.377 798.052C297.623 801.654 295.87 805.238 294.116 808.822V808.819ZM298.91 792.635C297.487 797.448 296.068 802.247 294.645 807.035C296.656 802.933 298.66 798.817 300.667 794.686C302.395 790.18 304.119 785.67 305.847 781.143C303.538 784.988 301.226 788.815 298.913 792.631L298.91 792.635ZM303.7 776.394C302.218 781.429 300.733 786.456 299.255 791.47C301.663 787.493 304.067 783.501 306.472 779.495C308.266 774.793 310.056 770.076 311.85 765.352C309.137 769.047 306.42 772.727 303.7 776.397V776.394ZM308.497 760.106C306.979 765.259 305.468 770.401 303.957 775.532C306.729 771.788 309.501 768.032 312.265 764.258C314.089 759.449 315.916 754.621 317.743 749.79C314.666 753.245 311.582 756.679 308.497 760.103V760.106ZM309.291 757.401L308.699 759.416C311.82 755.947 314.938 752.473 318.052 748.975C319.897 744.094 321.746 739.202 323.595 734.303C320.169 737.479 316.736 740.628 313.302 743.776C311.964 748.325 310.626 752.866 309.291 757.398V757.401ZM298.619 771.012C297.403 776.551 296.186 782.075 294.976 787.593C297.792 783.833 300.604 780.049 303.417 776.258C304.946 771.066 306.479 765.859 308.016 760.642C304.891 764.115 301.759 767.571 298.623 771.012H298.619ZM302.439 753.671C301.207 759.259 299.976 764.837 298.752 770.408C301.91 766.938 305.064 763.454 308.214 759.956L308.99 757.319C310.277 752.949 311.563 748.571 312.854 744.19C309.387 747.367 305.917 750.526 302.439 753.671ZM306.284 736.304C305.038 741.928 303.792 747.542 302.557 753.149C306.053 749.986 309.541 746.806 313.026 743.615C314.581 738.333 316.14 733.045 317.702 727.746C313.901 730.615 310.096 733.463 306.284 736.304ZM310.155 718.923C308.891 724.572 307.637 730.211 306.383 735.843C310.207 732.991 314.03 730.129 317.846 727.249C319.412 721.946 320.982 716.632 322.559 711.312C318.43 713.867 314.291 716.393 310.155 718.923ZM314.063 701.538C312.784 707.199 311.515 712.855 310.251 718.505C314.401 715.968 318.552 713.431 322.691 710.865C324.272 705.53 325.86 700.188 327.452 694.838C322.992 697.082 318.53 699.319 314.059 701.538H314.063ZM318.019 684.136C316.721 689.814 315.431 695.485 314.151 701.152C318.633 698.93 323.106 696.689 327.573 694.438C329.168 689.089 330.768 683.736 332.378 678.376C327.595 680.305 322.812 682.231 318.019 684.136ZM322.026 666.719C320.71 672.408 319.401 678.093 318.103 683.771C322.908 681.863 327.702 679.93 332.495 677.997C334.102 672.647 335.716 667.291 337.341 661.931C332.245 663.542 327.139 665.133 322.026 666.716V666.719ZM283.433 839.957C282.463 844.338 281.488 848.708 280.514 853.068C282.988 844.928 285.455 836.741 287.922 828.515C286.429 832.339 284.933 836.155 283.433 839.957ZM287.231 822.805C286.109 827.89 284.984 832.96 283.863 838.02C285.587 833.639 287.304 829.237 289.021 824.831C290.444 820.068 291.866 815.294 293.289 810.509C291.271 814.622 289.252 818.724 287.227 822.808L287.231 822.805ZM291.024 805.592C289.852 810.923 288.679 816.244 287.51 821.551C289.62 817.291 291.723 813.01 293.826 808.719C295.311 803.719 296.792 798.709 298.277 793.685C295.862 797.666 293.447 801.636 291.024 805.588V805.592ZM294.8 788.407C293.605 793.843 292.418 799.26 291.227 804.67C293.697 800.636 296.16 796.583 298.623 792.52C300.138 787.403 301.649 782.272 303.163 777.126C300.384 780.875 297.605 784.609 294.818 788.325L294.8 788.407ZM285.889 800.178C284.995 806.028 284.102 811.863 283.212 817.688C285.723 813.639 288.227 809.558 290.727 805.477C291.936 799.974 293.149 794.457 294.366 788.926C291.543 792.688 288.719 796.448 285.889 800.178ZM288.701 781.85C287.793 787.757 286.889 793.653 285.988 799.539C288.841 795.779 291.686 791.988 294.528 788.197C295.748 782.636 296.976 777.062 298.204 771.477C295.042 774.946 291.874 778.413 288.701 781.854V781.85ZM291.535 763.494C290.613 769.44 289.697 775.379 288.786 781.303C291.977 777.844 295.156 774.36 298.336 770.869C299.568 765.266 300.803 759.652 302.046 754.031C298.546 757.197 295.042 760.356 291.535 763.49V763.494ZM294.399 745.112C293.462 751.087 292.532 757.055 291.609 763.011C295.131 759.863 298.645 756.69 302.16 753.51C303.402 747.878 304.648 742.239 305.906 736.59C302.075 739.445 298.241 742.289 294.399 745.112ZM297.3 726.72C296.347 732.713 295.403 738.702 294.465 744.68C298.318 741.846 302.163 738.995 306.008 736.129C307.262 730.479 308.523 724.819 309.791 719.152C305.634 721.692 301.468 724.211 297.3 726.72ZM300.244 708.328C299.274 714.331 298.314 720.331 297.362 726.323C301.542 723.808 305.714 721.281 309.883 718.733C311.151 713.07 312.423 707.399 313.706 701.721C309.229 703.943 304.737 706.134 300.244 708.328ZM303.24 689.946C302.251 695.953 301.274 701.96 300.307 707.956C304.806 705.758 309.306 703.561 313.795 701.335C315.078 695.653 316.368 689.964 317.673 684.275C312.868 686.18 308.06 688.07 303.244 689.946H303.24ZM306.295 671.565C305.284 677.579 304.284 683.589 303.295 689.593C308.119 687.713 312.938 685.819 317.75 683.911C319.052 678.218 320.36 672.526 321.68 666.826C316.555 668.417 311.431 670.003 306.292 671.565H306.295ZM274.728 873.036C274.022 877.596 273.316 882.145 272.607 886.683C274.548 878.189 276.481 869.645 278.408 861.058C277.184 865.064 275.956 869.055 274.728 873.036ZM277.525 854.883C276.702 860.24 275.882 865.582 275.059 870.91C276.478 866.3 277.897 861.673 279.312 857.034C280.444 851.974 281.577 846.897 282.709 841.808C280.985 846.178 279.261 850.545 277.529 854.883H277.525ZM280.312 836.702C279.452 842.323 278.595 847.933 277.735 853.525C279.54 848.994 281.338 844.435 283.139 839.868C284.312 834.579 285.488 829.276 286.661 823.959C284.547 828.219 282.433 832.474 280.312 836.702ZM282.786 820.496C282.01 825.581 281.235 830.652 280.463 835.715C282.624 831.399 284.779 827.057 286.936 822.708C288.135 817.288 289.33 811.852 290.528 806.403C288.054 810.437 285.58 814.468 283.098 818.467L282.786 820.496ZM275.125 831.224C274.555 837.381 273.989 843.52 273.426 849.648C275.629 845.321 277.82 840.975 280.011 836.612C280.83 831.238 281.654 825.853 282.477 820.454L282.679 819.135C280.169 823.18 277.65 827.211 275.125 831.224ZM276.915 811.917C276.338 818.134 275.761 824.338 275.191 830.534C277.731 826.493 280.268 822.437 282.801 818.356C283.698 812.481 284.598 806.596 285.499 800.696C282.643 804.455 279.783 808.193 276.919 811.917H276.915ZM278.728 792.581C278.136 798.845 277.551 805.095 276.97 811.334C279.849 807.593 282.727 803.834 285.595 800.057C286.503 794.135 287.411 788.204 288.322 782.258C285.131 785.713 281.933 789.158 278.728 792.578V792.581ZM280.569 773.224C279.966 779.517 279.367 785.802 278.775 792.074C281.992 788.636 285.201 785.184 288.407 781.714C289.322 775.761 290.241 769.794 291.168 763.823C287.639 766.971 284.109 770.112 280.569 773.228V773.224ZM282.452 753.849C281.83 760.163 281.22 766.474 280.613 772.77C284.161 769.644 287.705 766.495 291.241 763.336C292.168 757.358 293.101 751.369 294.039 745.373C290.179 748.207 286.319 751.044 282.448 753.849H282.452ZM284.378 734.449C283.742 740.788 283.113 747.117 282.492 753.442C286.374 750.633 290.241 747.789 294.109 744.944C295.05 738.948 295.995 732.945 296.95 726.934C292.763 729.454 288.576 731.966 284.378 734.453V734.449ZM286.359 715.049C285.701 721.396 285.054 727.735 284.418 734.07C288.624 731.58 292.822 729.057 297.017 726.534C297.972 720.527 298.932 714.513 299.906 708.496C295.399 710.693 290.885 712.88 286.363 715.049H286.359ZM288.4 695.664C287.719 702.01 287.054 708.353 286.4 714.692C290.929 712.519 295.45 710.329 299.965 708.124C300.935 702.114 301.917 696.1 302.906 690.078C298.079 691.958 293.241 693.813 288.4 695.664ZM290.51 676.307C289.808 682.649 289.116 688.989 288.436 695.321C293.285 693.47 298.127 691.611 302.961 689.728C303.953 683.711 304.95 677.69 305.964 671.668C300.818 673.23 295.667 674.774 290.51 676.307ZM268.026 907.966C267.581 912.711 267.133 917.446 266.681 922.166C268.107 913.301 269.519 904.389 270.927 895.427C269.963 899.618 268.993 903.799 268.022 907.966H268.026ZM269.809 888.877C269.287 894.483 268.765 900.076 268.243 905.654C269.372 900.798 270.497 895.927 271.618 891.039C272.449 885.739 273.276 880.419 274.103 875.087C272.677 879.7 271.246 884.299 269.813 888.877H269.809ZM271.581 869.72C271.037 875.627 270.489 881.519 269.945 887.394C271.441 882.606 272.938 877.799 274.426 872.972C275.294 867.386 276.154 861.783 277.018 856.166C275.209 860.697 273.401 865.224 271.581 869.72ZM273.066 853.604C272.603 858.624 272.143 863.631 271.68 868.63C273.533 864.042 275.379 859.428 277.224 854.804C278.103 849.087 278.981 843.352 279.86 837.602C277.695 841.915 275.526 846.214 273.349 850.491L273.063 853.604H273.066ZM266.339 864.163C266.1 870.628 265.861 877.07 265.622 883.502C267.511 878.9 269.397 874.287 271.276 869.645C271.769 864.303 272.261 858.95 272.757 853.579L272.971 851.253C270.765 855.58 268.556 859.879 266.339 864.167V864.163ZM267.103 843.874C266.853 850.406 266.611 856.927 266.365 863.431C268.596 859.107 270.827 854.772 273.044 850.409C273.614 844.227 274.184 838.027 274.757 831.817C272.213 835.862 269.658 839.871 267.1 843.877L267.103 843.874ZM267.886 823.552C267.629 830.134 267.375 836.702 267.125 843.259C269.695 839.232 272.265 835.194 274.823 831.124C275.401 824.892 275.978 818.645 276.562 812.385C273.676 816.13 270.783 819.842 267.886 823.552ZM268.699 803.201C268.427 809.819 268.166 816.423 267.909 823.016C270.816 819.292 273.721 815.562 276.617 811.802C277.202 805.535 277.79 799.249 278.382 792.956C275.162 796.394 271.934 799.799 268.699 803.201ZM269.552 782.829C269.265 789.472 268.989 796.108 268.717 802.726C271.96 799.313 275.198 795.897 278.426 792.449C279.022 786.153 279.621 779.846 280.227 773.528C276.676 776.651 273.114 779.742 269.552 782.829ZM270.449 762.45C270.147 769.111 269.853 775.761 269.57 782.404C273.143 779.31 276.713 776.208 280.272 773.078C280.878 766.76 281.492 760.431 282.113 754.096C278.235 756.904 274.342 759.681 270.449 762.454V762.45ZM271.397 742.071C271.077 748.743 270.769 755.4 270.467 762.057C274.368 759.277 278.268 756.497 282.157 753.681C282.779 747.346 283.407 740.996 284.047 734.642C279.838 737.133 275.621 739.613 271.397 742.071ZM272.412 721.699C272.07 728.374 271.735 735.042 271.416 741.703C275.643 739.241 279.867 736.761 284.084 734.263C284.723 727.917 285.37 721.564 286.028 715.207C281.492 717.379 276.959 719.559 272.412 721.703V721.699ZM273.496 701.31C273.129 707.995 272.772 714.674 272.43 721.349C276.985 719.205 281.525 717.022 286.069 714.846C286.727 708.496 287.392 702.142 288.076 695.785C283.223 697.64 278.367 699.487 273.5 701.31H273.496ZM274.654 680.952C274.261 687.631 273.882 694.306 273.515 700.977C278.386 699.151 283.249 697.3 288.109 695.446C288.789 689.103 289.48 682.753 290.186 676.403C285.017 677.94 279.838 679.451 274.658 680.956L274.654 680.952ZM263.313 944.779C263.122 949.692 262.931 954.599 262.736 959.487C263.655 950.278 264.559 941.016 265.453 931.707C264.743 936.078 264.03 940.437 263.313 944.782V944.779ZM264.082 924.725C263.861 930.585 263.637 936.431 263.413 942.26C264.247 937.167 265.082 932.054 265.912 926.926C266.445 921.37 266.975 915.795 267.5 910.203C266.365 915.062 265.229 919.901 264.082 924.725ZM264.835 904.61C264.604 910.796 264.376 916.967 264.144 923.117C265.339 918.068 266.53 912.997 267.714 907.905C268.265 902.048 268.813 896.174 269.361 890.285C267.857 895.077 266.35 899.854 264.835 904.61ZM265.464 887.651C265.269 892.929 265.074 898.193 264.879 903.442C266.423 898.586 267.964 893.704 269.5 888.805C270.059 882.791 270.618 876.756 271.177 870.706C269.32 875.294 267.456 879.854 265.589 884.403L265.468 887.651H265.464ZM259.534 899C259.622 905.775 259.711 912.533 259.799 919.272C261.38 914.387 262.957 909.485 264.526 904.557C264.736 898.932 264.945 893.293 265.155 887.64L265.243 885.246C263.35 889.856 261.442 894.433 259.534 899ZM259.266 877.731C259.35 884.571 259.435 891.4 259.527 898.211C261.449 893.604 263.368 888.984 265.28 884.335C265.523 877.842 265.762 871.335 266.004 864.81C263.765 869.141 261.519 873.443 259.269 877.731H259.266ZM259.016 856.427C259.093 863.323 259.174 870.206 259.258 877.077C261.523 872.764 263.78 868.433 266.03 864.078C266.276 857.531 266.523 850.967 266.773 844.392C264.196 848.426 261.608 852.435 259.016 856.43V856.427ZM258.795 835.087C258.861 842.022 258.931 848.955 259.008 855.862C261.611 851.853 264.207 847.822 266.795 843.773C267.045 837.184 267.298 830.584 267.559 823.966C264.644 827.693 261.721 831.399 258.795 835.087ZM258.608 813.725C258.659 820.693 258.722 827.647 258.788 834.593C261.725 830.891 264.655 827.175 267.578 823.437C267.839 816.816 268.1 810.187 268.372 803.544C265.122 806.96 261.869 810.352 258.604 813.728L258.608 813.725ZM258.468 792.345C258.505 799.335 258.549 806.314 258.604 813.282C261.872 809.898 265.14 806.492 268.394 803.069C268.666 796.426 268.941 789.772 269.228 783.108C265.648 786.206 262.06 789.283 258.468 792.345ZM258.38 770.959C258.398 777.962 258.428 784.956 258.464 791.938C262.063 788.868 265.659 785.785 269.247 782.679C269.533 776.022 269.824 769.351 270.129 762.675C266.221 765.459 262.302 768.211 258.38 770.959ZM258.358 749.575C258.358 756.583 258.361 763.587 258.38 770.58C262.306 767.828 266.232 765.07 270.147 762.282C270.449 755.614 270.758 748.939 271.081 742.257C266.85 744.719 262.604 747.149 258.358 749.575ZM258.406 728.206C258.38 735.218 258.361 742.221 258.358 749.222C262.611 746.792 266.861 744.355 271.096 741.889C271.419 735.214 271.75 728.532 272.096 721.846C267.541 723.99 262.975 726.098 258.406 728.206ZM258.531 706.866C258.475 713.87 258.435 720.87 258.409 727.867C262.982 725.755 267.556 723.643 272.114 721.496C272.46 714.81 272.813 708.12 273.18 701.424C268.302 703.25 263.42 705.069 258.531 706.863V706.866ZM258.747 685.533C258.663 692.537 258.589 699.541 258.534 706.537C263.431 704.744 268.32 702.921 273.202 701.092C273.57 694.413 273.948 687.727 274.342 681.041C269.147 682.549 263.953 684.057 258.747 685.533ZM260.615 983.471C260.674 988.553 260.729 993.62 260.78 998.673C261.203 989.135 261.611 979.541 262.005 969.889C261.545 974.431 261.082 978.958 260.611 983.471H260.615ZM260.365 962.464C260.442 968.57 260.516 974.663 260.586 980.734C261.133 975.421 261.677 970.089 262.218 964.733C262.453 958.919 262.685 953.087 262.913 947.234C262.071 952.329 261.222 957.407 260.365 962.46V962.464ZM260.097 941.391C260.181 947.856 260.266 954.298 260.347 960.723C261.24 955.417 262.13 950.089 263.012 944.74C263.251 938.608 263.486 932.454 263.718 926.283C262.516 931.339 261.31 936.374 260.097 941.388V941.391ZM259.85 922.592C259.927 928.456 260.005 934.298 260.082 940.13C261.321 935.002 262.552 929.849 263.78 924.679C264.019 918.375 264.254 912.054 264.49 905.715C262.938 910.578 261.383 915.42 259.821 920.24L259.85 922.588V922.592ZM254.733 935.763C255.152 942.828 255.568 949.875 255.983 956.896C257.259 951.74 258.523 946.558 259.784 941.352C259.703 935.113 259.619 928.863 259.538 922.592L259.519 921.166C257.931 926.054 256.336 930.921 254.733 935.763ZM253.424 913.49C253.843 920.655 254.263 927.795 254.685 934.92C256.303 930.035 257.909 925.125 259.508 920.194C259.42 913.39 259.328 906.565 259.24 899.722C257.31 904.335 255.373 908.92 253.428 913.49H253.424ZM252.134 891.203C252.546 898.414 252.965 905.611 253.384 912.786C255.34 908.191 257.288 903.574 259.229 898.932C259.141 892.075 259.053 885.2 258.968 878.307C256.7 882.627 254.421 886.922 252.134 891.199V891.203ZM250.866 868.884C251.274 876.141 251.686 883.377 252.097 890.606C254.391 886.311 256.678 881.994 258.957 877.656C258.872 870.753 258.792 863.834 258.714 856.898C256.104 860.915 253.491 864.91 250.866 868.884ZM249.638 846.529C250.031 853.818 250.432 861.097 250.836 868.362C253.468 864.374 256.09 860.365 258.707 856.334C258.63 849.394 258.556 842.441 258.49 835.472C255.546 839.178 252.597 842.866 249.638 846.529ZM248.45 824.159C248.829 831.474 249.219 838.774 249.612 846.064C252.579 842.391 255.534 838.692 258.486 834.976C258.42 828.008 258.354 821.032 258.303 814.043C255.023 817.434 251.741 820.807 248.45 824.159ZM247.318 801.772C247.678 809.104 248.046 816.43 248.428 823.737C251.726 820.382 255.016 816.998 258.299 813.6C258.244 806.614 258.2 799.614 258.163 792.606C254.557 795.679 250.943 798.738 247.318 801.772ZM246.245 779.385C246.587 786.728 246.94 794.057 247.3 801.382C250.928 798.345 254.546 795.279 258.159 792.202C258.122 785.202 258.093 778.195 258.075 771.177C254.138 773.932 250.197 776.669 246.245 779.385ZM245.249 757.001C245.561 764.348 245.888 771.688 246.226 779.02C250.182 776.301 254.13 773.556 258.071 770.798C258.053 763.79 258.045 756.776 258.049 749.754C253.788 752.188 249.52 754.603 245.249 757.001ZM244.326 734.635C244.613 741.982 244.918 749.322 245.234 756.654C249.513 754.253 253.785 751.834 258.049 749.397C258.049 742.389 258.067 735.371 258.097 728.349C253.516 730.465 248.925 732.555 244.326 734.635ZM243.499 712.298C243.756 719.638 244.024 726.974 244.315 734.303C248.917 732.219 253.513 730.129 258.1 728.01C258.126 721.006 258.167 713.995 258.222 706.981C253.325 708.774 248.41 710.536 243.499 712.298ZM242.763 690.003C242.988 697.329 243.23 704.654 243.488 711.973C248.403 710.211 253.321 708.446 258.222 706.652C258.277 699.644 258.35 692.633 258.435 685.619C253.218 687.098 247.995 688.556 242.763 690.003ZM259.92 1024.01C260.222 1029.24 260.516 1034.46 260.81 1039.66C260.751 1029.84 260.674 1019.96 260.582 1010.03C260.369 1014.71 260.144 1019.36 259.92 1024.01V1024.01ZM258.652 1002.08C259.023 1008.43 259.391 1014.76 259.755 1021.06C260.019 1015.51 260.277 1009.94 260.53 1004.35C260.472 998.308 260.409 992.244 260.339 986.162C259.784 991.49 259.222 996.797 258.652 1002.08ZM257.358 980.048C257.755 986.784 258.152 993.502 258.542 1000.19C259.137 994.638 259.725 989.06 260.306 983.461C260.233 977.054 260.155 970.629 260.078 964.179C259.178 969.492 258.27 974.781 257.358 980.048ZM256.075 958.365C256.479 965.158 256.88 971.93 257.277 978.683C258.211 973.291 259.137 967.874 260.056 962.435C259.975 955.846 259.891 949.238 259.802 942.613C258.556 947.745 257.306 952.855 256.045 957.94L256.071 958.365H256.075ZM249.583 951.168C250.333 958.622 251.086 966.055 251.84 973.466C253.149 968.306 254.446 963.121 255.737 957.911C255.314 950.818 254.895 943.696 254.472 936.564C252.851 941.456 251.219 946.323 249.583 951.168ZM247.241 927.87C247.995 935.406 248.752 942.921 249.506 950.418C251.152 945.544 252.792 940.644 254.421 935.72C253.998 928.541 253.571 921.348 253.152 914.133C251.189 918.736 249.219 923.314 247.241 927.866V927.87ZM244.929 904.564C245.675 912.132 246.425 919.694 247.178 927.23C249.164 922.656 251.141 918.053 253.112 913.43C252.689 906.211 252.274 898.975 251.855 891.725C249.553 896.027 247.245 900.308 244.929 904.56V904.564ZM242.646 881.23C243.385 888.841 244.127 896.431 244.874 904.01C247.201 899.74 249.513 895.445 251.822 891.128C251.406 883.87 250.991 876.602 250.583 869.312C247.943 873.304 245.3 877.281 242.646 881.23ZM240.411 857.867C241.135 865.503 241.863 873.132 242.598 880.744C245.26 876.788 247.91 872.797 250.553 868.794C250.145 861.508 249.744 854.201 249.347 846.886C246.373 850.566 243.399 854.233 240.407 857.867H240.411ZM238.223 834.49C238.929 842.148 239.646 849.795 240.37 857.427C243.366 853.786 246.348 850.105 249.329 846.421C248.936 839.11 248.542 831.788 248.16 824.452C244.855 827.815 241.547 831.17 238.223 834.486V834.49ZM236.098 811.102C236.782 818.774 237.481 826.435 238.187 834.086C241.514 830.763 244.826 827.4 248.138 824.034C247.759 816.705 247.388 809.365 247.028 802.015C243.392 805.059 239.753 808.1 236.098 811.102ZM234.044 787.714C234.705 795.393 235.378 803.065 236.065 810.727C239.723 807.722 243.366 804.673 247.006 801.625C246.645 794.286 246.289 786.942 245.947 779.585C241.984 782.308 238.021 785.031 234.044 787.711V787.714ZM232.062 764.341C232.698 772.023 233.349 779.695 234.01 787.364C237.995 784.677 241.962 781.95 245.929 779.227C245.59 771.884 245.263 764.53 244.947 757.169C240.657 759.574 236.367 761.975 232.062 764.341ZM230.18 740.978C230.783 748.657 231.4 756.333 232.033 764.001C236.341 761.632 240.639 759.227 244.932 756.822C244.616 749.475 244.315 742.128 244.024 734.771C239.414 736.854 234.804 738.934 230.18 740.978ZM228.393 717.651C228.963 725.319 229.555 732.988 230.154 740.653C234.782 738.605 239.396 736.525 244.01 734.439C243.723 727.099 243.451 719.752 243.194 712.405C238.267 714.17 233.334 715.921 228.393 717.654V717.651ZM226.713 694.37C227.246 702.028 227.801 709.682 228.367 717.336C233.312 715.603 238.249 713.852 243.182 712.083C242.925 704.754 242.683 697.422 242.458 690.089C237.22 691.536 231.966 692.955 226.71 694.37H226.713ZM256.623 1020.57C257.332 1027.57 258.038 1034.55 258.736 1041.5C259.038 1035.7 259.325 1029.86 259.611 1024.01C259.229 1017.35 258.843 1010.66 258.45 1003.95C257.85 1009.51 257.24 1015.06 256.623 1020.57ZM254.281 997.511C255.016 1004.73 255.748 1011.93 256.476 1019.11C257.108 1013.46 257.729 1007.77 258.343 1002.07C257.942 995.196 257.538 988.303 257.126 981.385C256.189 986.784 255.24 992.158 254.281 997.508V997.511ZM254.02 994.917L254.167 996.379C255.137 990.954 256.097 985.501 257.045 980.023C256.63 973.023 256.215 965.998 255.799 958.955C254.52 964.118 253.23 969.257 251.932 974.374C252.627 981.238 253.325 988.092 254.02 994.921V994.917ZM247.737 990.672C248.825 998.423 249.91 1006.16 250.994 1013.87C251.998 1008.44 252.987 1002.98 253.968 997.497L253.707 994.946C253.042 988.399 252.377 981.831 251.708 975.253C250.395 980.42 249.072 985.558 247.737 990.672ZM244.352 966.441C245.44 974.27 246.535 982.081 247.627 989.871C248.969 984.726 250.296 979.548 251.619 974.349C250.862 966.88 250.101 959.39 249.344 951.879C247.689 956.76 246.028 961.613 244.352 966.444V966.441ZM240.98 942.127C242.072 950.025 243.164 957.904 244.26 965.762C245.94 960.909 247.609 956.031 249.27 951.129C248.509 943.589 247.748 936.031 246.991 928.452C244.999 933.033 242.995 937.596 240.98 942.127ZM237.646 917.807C238.727 925.733 239.811 933.644 240.9 941.538C242.918 936.992 244.925 932.411 246.925 927.812C246.168 920.24 245.414 912.651 244.664 905.046C242.333 909.32 239.995 913.583 237.642 917.807H237.646ZM234.349 893.465C235.418 901.423 236.496 909.367 237.576 917.292C239.933 913.054 242.274 908.781 244.613 904.496C243.863 896.892 243.116 889.273 242.374 881.633C239.705 885.596 237.036 889.552 234.349 893.465ZM231.099 869.08C232.154 877.07 233.216 885.046 234.286 893.008C236.977 889.084 239.653 885.118 242.33 881.148C241.591 873.515 240.859 865.864 240.131 858.206C237.128 861.851 234.121 865.482 231.099 869.084V869.08ZM227.912 844.678C228.948 852.682 229.992 860.679 231.044 868.659C234.069 865.053 237.084 861.419 240.091 857.767C239.367 850.116 238.646 842.451 237.94 834.772C234.606 838.099 231.264 841.397 227.912 844.678ZM224.791 820.282C225.801 828.294 226.827 836.298 227.86 844.288C231.213 841.004 234.562 837.702 237.9 834.368C237.194 826.703 236.496 819.024 235.804 811.338C232.143 814.343 228.467 817.32 224.787 820.282H224.791ZM221.754 795.897C222.739 803.912 223.735 811.92 224.746 819.918C228.43 816.952 232.11 813.971 235.775 810.963C235.091 803.287 234.415 795.601 233.749 787.907C229.761 790.594 225.757 793.249 221.754 795.897ZM218.809 771.534C219.765 779.545 220.732 787.553 221.714 795.554C225.724 792.906 229.731 790.248 233.724 787.557C233.062 779.878 232.408 772.191 231.772 764.498C227.459 766.867 223.14 769.208 218.809 771.534ZM215.957 747.206C216.876 755.211 217.817 763.208 218.769 771.201C223.099 768.872 227.426 766.528 231.742 764.158C231.106 756.479 230.492 748.793 229.886 741.103C225.25 743.154 220.607 745.191 215.957 747.203V747.206ZM213.218 722.921C214.1 730.912 215.001 738.902 215.92 746.885C220.578 744.869 225.221 742.832 229.86 740.778C229.257 733.106 228.665 725.43 228.095 717.751C223.14 719.484 218.188 721.224 213.218 722.921ZM210.597 698.658C211.442 706.645 212.303 714.628 213.185 722.611C218.159 720.913 223.114 719.173 228.073 717.436C227.504 709.775 226.948 702.114 226.415 694.449C221.147 695.867 215.879 697.279 210.6 698.662L210.597 698.658ZM253.579 1032.21L254.354 1037.72C255.02 1032.03 255.674 1026.31 256.317 1020.57C255.579 1013.28 254.836 1005.96 254.09 998.63C253.116 1004.06 252.13 1009.47 251.138 1014.85L253.582 1032.21H253.579ZM243.462 1006.83C244.888 1014.97 246.318 1023.08 247.745 1031.17C248.781 1025.76 249.807 1020.31 250.818 1014.84C249.726 1007.07 248.631 999.269 247.535 991.454C246.19 996.611 244.829 1001.74 243.462 1006.83ZM239.039 981.578C240.469 989.775 241.903 997.951 243.337 1006.11C244.712 1000.98 246.076 995.832 247.428 990.65C246.329 982.818 245.234 974.96 244.135 967.084C242.447 971.944 240.749 976.775 239.043 981.578H239.039ZM234.635 956.257C236.062 964.511 237.495 972.741 238.929 980.956C240.642 976.135 242.344 971.286 244.035 966.409C242.936 958.511 241.837 950.6 240.741 942.663C238.716 947.219 236.683 951.758 234.635 956.257ZM230.279 930.928C231.694 939.204 233.117 947.47 234.54 955.71C236.591 951.197 238.631 946.644 240.661 942.074C239.569 934.155 238.481 926.211 237.392 918.257C235.029 922.502 232.661 926.737 230.275 930.928H230.279ZM225.96 905.539C227.364 913.855 228.776 922.156 230.195 930.442C232.584 926.24 234.959 921.999 237.326 917.743C236.242 909.792 235.161 901.827 234.088 893.844C231.389 897.771 228.68 901.662 225.96 905.539ZM221.699 880.14C223.085 888.473 224.482 896.792 225.886 905.096C228.606 901.216 231.323 897.317 234.025 893.383C232.952 885.403 231.886 877.413 230.827 869.405C227.798 873.015 224.746 876.581 221.695 880.14H221.699ZM217.512 854.737C218.876 863.08 220.247 871.417 221.633 879.736C224.688 876.17 227.739 872.596 230.775 868.984C229.72 860.987 228.673 852.975 227.636 844.953C224.272 848.244 220.894 851.496 217.512 854.74V854.737ZM213.402 829.341C214.74 837.688 216.089 846.032 217.449 854.361C220.835 851.113 224.217 847.858 227.584 844.56C226.548 836.552 225.522 828.536 224.508 820.511C220.817 823.48 217.111 826.417 213.402 829.341ZM209.38 803.966C210.689 812.317 212.012 820.657 213.347 828.987C217.06 826.06 220.769 823.119 224.463 820.146C223.452 812.138 222.453 804.116 221.467 796.087C217.449 798.738 213.42 801.357 209.384 803.962L209.38 803.966ZM205.454 778.62C206.729 786.964 208.02 795.3 209.325 803.634C213.365 801.021 217.398 798.402 221.419 795.747C220.438 787.739 219.467 779.721 218.512 771.695C214.17 774.028 209.814 776.329 205.454 778.62ZM201.645 753.302C202.884 761.636 204.134 769.969 205.402 778.295C209.766 776.001 214.126 773.699 218.471 771.362C217.519 763.358 216.574 755.35 215.655 747.335C210.997 749.35 206.321 751.326 201.645 753.302ZM197.954 728.039C199.153 736.357 200.37 744.676 201.601 752.988C206.281 751.012 210.957 749.032 215.618 747.017C214.699 739.023 213.799 731.026 212.916 723.025C207.943 724.722 202.947 726.377 197.954 728.035V728.039ZM194.385 702.835C195.539 711.133 196.716 719.434 197.91 727.728C202.906 726.066 207.902 724.412 212.883 722.714C212.001 714.724 211.137 706.734 210.292 698.737C204.998 700.123 199.697 701.488 194.385 702.835ZM207.788 674.513C202.186 675.585 196.583 676.66 190.966 677.697C192.072 685.973 193.197 694.252 194.344 702.528C199.656 701.181 204.961 699.812 210.259 698.426C209.417 690.457 208.59 682.485 207.788 674.513ZM224.853 671.204C219.276 672.304 213.688 673.387 208.093 674.456C208.895 682.421 209.722 690.386 210.564 698.351C215.85 696.968 221.122 695.553 226.39 694.134C225.857 686.491 225.346 678.847 224.853 671.204ZM241.837 667.806C236.286 668.938 230.724 670.042 225.158 671.143C225.651 678.779 226.165 686.419 226.695 694.052C231.952 692.637 237.209 691.215 242.455 689.768C242.23 682.449 242.024 675.127 241.837 667.806ZM258.751 664.282C253.222 665.444 247.693 666.612 242.146 667.745C242.333 675.06 242.539 682.371 242.763 689.682C247.998 688.235 253.226 686.773 258.45 685.294C258.534 678.29 258.633 671.29 258.751 664.282ZM275.603 660.698C270.096 661.888 264.582 663.057 259.064 664.218C258.946 671.215 258.85 678.211 258.762 685.204C263.975 683.725 269.173 682.217 274.371 680.706C274.765 674.038 275.176 667.366 275.603 660.695V660.698ZM292.385 657.021C286.903 658.24 281.411 659.44 275.919 660.627C275.496 667.291 275.084 673.955 274.691 680.616C279.878 679.108 285.062 677.597 290.234 676.06C290.936 669.717 291.653 663.371 292.385 657.021ZM309.107 653.24C303.645 654.487 298.182 655.731 292.708 656.95C291.976 663.289 291.263 669.624 290.561 675.96C295.726 674.423 300.884 672.88 306.034 671.315C307.049 665.293 308.071 659.265 309.107 653.237V653.24ZM325.764 649.41C320.331 650.678 314.883 651.925 309.438 653.165C308.402 659.187 307.38 665.204 306.369 671.218C311.515 669.653 316.647 668.063 321.779 666.473C323.095 660.791 324.426 655.102 325.764 649.41ZM342.366 645.483C336.951 646.776 331.532 648.063 326.106 649.331C324.768 655.013 323.441 660.691 322.129 666.365C327.246 664.779 332.363 663.185 337.469 661.57C339.094 656.21 340.726 650.85 342.37 645.483H342.366ZM358.927 641.473C353.531 642.792 348.127 644.107 342.719 645.4C341.079 650.757 339.447 656.11 337.83 661.456C342.925 659.844 348.02 658.225 353.104 656.589C355.034 651.554 356.982 646.515 358.931 641.473H358.927ZM375.4 637.425C370.04 638.761 364.669 640.072 359.298 641.384C357.354 646.415 355.409 651.447 353.483 656.471C358.563 654.834 363.629 653.172 368.695 651.514C370.923 646.826 373.161 642.127 375.4 637.425ZM391.829 633.276C386.487 634.634 381.142 635.992 375.79 637.325C373.555 642.013 371.32 646.701 369.099 651.379C374.147 649.724 379.19 648.066 384.227 646.387C386.756 642.024 389.289 637.65 391.829 633.272V633.276ZM408.203 629.07C402.891 630.446 397.575 631.814 392.248 633.169C389.715 637.528 387.19 641.888 384.671 646.24C389.689 644.568 394.704 642.892 399.711 641.198C402.538 637.16 405.365 633.119 408.203 629.07ZM424.496 624.832C419.228 626.218 413.945 627.583 408.666 628.948C405.843 632.983 403.023 637.003 400.207 641.03C405.203 639.34 410.192 637.625 415.176 635.913C418.279 632.225 421.385 628.53 424.496 624.832ZM440.759 620.494C435.513 621.898 430.271 623.31 425.014 624.693C421.919 628.373 418.827 632.05 415.739 635.72C420.687 634.019 425.631 632.315 430.569 630.599C433.962 627.233 437.359 623.867 440.755 620.494H440.759ZM456.934 616.131C451.747 617.542 446.556 618.943 441.358 620.337C437.987 623.685 434.62 627.026 431.252 630.364C436.149 628.659 441.046 626.951 445.931 625.229C449.597 622.202 453.265 619.172 456.934 616.134V616.131ZM472.966 611.75C467.871 613.158 462.761 614.544 457.651 615.934C454.023 618.939 450.394 621.938 446.77 624.932C451.626 623.22 456.471 621.487 461.316 619.758C465.198 617.096 469.08 614.423 472.962 611.75H472.966ZM488.906 607.305C483.895 608.705 478.888 610.113 473.867 611.503C470.062 614.126 466.253 616.745 462.445 619.358C467.161 617.674 471.871 615.984 476.58 614.287C480.69 611.964 484.8 609.638 488.906 607.305ZM504.408 602.945C499.651 604.292 494.887 605.629 490.119 606.965C486.186 609.198 482.252 611.428 478.319 613.654C482.837 612.025 487.351 610.388 491.862 608.745C496.049 606.819 500.229 604.882 504.408 602.945ZM518.687 598.875C514.562 600.054 510.437 601.233 506.305 602.402C502.637 604.103 498.964 605.8 495.292 607.494C503.103 604.639 510.897 601.766 518.687 598.875ZM1516.63 3.3349e-05C1555.93 5.74247 1596.72 13.1394 1639 22.2086V22.5231C1595.96 13.2895 1554.47 5.7925 1514.52 -0.00354004H1516.63L1516.63 3.3349e-05ZM-198 715.081C-64.0288 714.978 65.1559 700.581 190.587 677.464C158.571 437.747 145.425 198.684 191.951 3.3349e-05H192.271C145.738 198.648 158.884 437.697 190.896 677.407C196.521 676.371 202.123 675.292 207.729 674.22C183.665 434.788 178.695 195.682 236.532 3.3349e-05H236.856C179.007 195.643 183.974 434.735 208.035 674.163C213.63 673.094 219.221 672.011 224.805 670.911C209.332 431.658 213.196 192.37 283.385 3.3349e-05H283.716C213.516 192.327 209.648 431.601 225.114 670.846C230.68 669.746 236.249 668.642 241.804 667.509C235.944 439.112 247.914 210.276 321.919 25.8285C325.419 17.1058 329.11 8.51899 332.892 3.3349e-05H333.234C329.433 8.55472 325.728 17.1773 322.213 25.9393C248.234 210.323 236.26 439.098 242.12 667.448C247.667 666.315 253.2 665.147 258.736 663.982C262.247 456.883 280.584 249.044 349.472 77.2817C360.177 50.5921 372.15 24.8101 385.429 3.3349e-05H385.782C372.478 24.8422 360.482 50.66 349.762 77.3925C280.9 249.09 262.56 456.868 259.049 663.918C264.574 662.756 270.092 661.588 275.603 660.394C287.37 475.532 311.063 289.72 374.308 131.955C393.031 85.2468 415.276 41.0404 441.649 0.00360674H442.02C415.61 41.069 393.34 85.3147 374.599 132.065C311.376 289.77 287.686 475.518 275.919 660.326C281.418 659.137 286.918 657.936 292.403 656.714C310.971 495.4 338.679 333.043 395.56 191.08C423.367 121.67 458.166 57.1492 502.262 3.3349e-05H502.662C458.511 57.1742 423.679 121.731 395.847 191.187C338.988 333.09 311.287 495.382 292.719 656.642C298.2 655.424 303.67 654.177 309.137 652.926C332.506 517.101 362.372 380.266 411.842 256.744C450.221 160.913 500.405 73.108 568.492 3.3349e-05H568.918C500.754 73.1187 450.53 160.97 412.133 256.855C362.688 380.312 332.83 517.084 309.468 652.851C314.923 651.607 320.375 650.36 325.816 649.088C351.049 541.89 380.323 433.859 420.72 332.929C471.852 205.188 540.854 88.8809 641.979 3.3349e-05H642.468C541.229 88.8773 472.172 205.23 421.014 333.036C380.642 433.902 351.384 541.869 326.158 649.01C331.595 647.737 337.021 646.451 342.443 645.157C364.633 572.714 388.649 499.778 416.912 429.125C484.414 260.364 576.197 104.729 725.046 3.3349e-05H725.612C576.59 104.693 484.741 260.393 417.202 429.232C388.969 499.817 364.967 572.689 342.796 645.072C348.218 643.774 353.626 642.456 359.037 641.134C455.467 391.422 573.271 134.27 822.167 3.3349e-05H822.887C573.749 134.113 455.868 391.282 359.405 641.044C364.791 639.729 370.173 638.414 375.544 637.074C498.163 379.915 642.692 112.701 942.922 3.3349e-05H943.863C643.251 112.458 498.607 379.726 375.933 636.974C381.3 635.634 386.66 634.276 392.016 632.915C551.203 358.747 733.916 70.0456 1122.25 3.3349e-05H1124.05C734.725 69.431 551.78 358.386 392.436 632.808C397.781 631.45 403.115 630.074 408.445 628.691C649.441 284.695 924.1 -88.4771 1639 54.7872V55.1017C924.445 -88.1054 649.802 284.735 408.909 628.573C414.213 627.198 419.518 625.829 424.812 624.435L427.039 621.787C690.28 308.702 978.338 -33.7113 1639 87.9054V88.2198C978.467 -33.3826 690.467 308.959 427.282 621.977L425.334 624.296C430.62 622.902 435.895 621.487 441.171 620.072C448.089 613.201 455.012 606.318 461.952 599.418C741.618 321.244 1042.07 22.5803 1639 121.463V121.774C1042.18 22.9055 741.791 321.509 462.173 599.629C455.361 606.408 448.56 613.165 441.766 619.911C447.009 618.507 452.243 617.092 457.475 615.666C472.157 603.499 486.855 591.256 501.593 578.978C794.43 334.987 1103.11 77.9356 1639 155.575V155.886C1103.21 78.2572 794.584 335.262 501.795 579.207C487.23 591.342 472.705 603.442 458.191 615.466C463.364 614.058 468.54 612.654 473.701 611.228C497.964 594.519 522.212 577.617 546.526 560.668C848.76 349.963 1161.2 132.212 1639 190.337V190.647C1161.28 132.526 848.896 350.246 546.707 560.915C522.635 577.699 498.626 594.43 474.602 610.982C479.734 609.563 484.847 608.123 489.968 606.69C525.844 586.3 561.606 565.528 597.423 544.72C904.671 366.201 1216.09 185.316 1639 225.924V226.231C1216.17 185.623 904.785 366.483 597.581 544.981C562.113 565.589 526.701 586.154 491.182 606.354C496.181 604.953 501.177 603.545 506.166 602.13C556.044 579.003 605.592 555.19 655.081 531.395C962.277 383.7 1267.53 236.962 1638.99 262.38V262.687C1267.59 237.273 962.376 383.989 655.22 531.667C606.309 555.183 557.349 578.717 508.066 601.591C512.797 600.247 517.532 598.903 522.256 597.546C588.961 572.746 654.915 546.807 720.498 521.004C1021.8 402.456 1315.38 286.968 1639 299.829V300.136C1315.43 287.272 1021.88 402.749 720.612 521.282C656.235 546.614 591.494 572.071 526.043 596.456C617.15 570.227 706.61 541.886 794.886 513.925C1083.61 422.467 1359.67 335.055 1639 338.303V338.611C1359.71 335.363 1083.68 422.768 794.985 514.218C705.485 542.569 614.768 571.303 522.356 597.839C512.239 601.601 502.107 605.339 491.953 609.041C482.436 613.422 472.904 617.771 463.357 622.091C454.405 627.112 445.442 632.1 436.473 637.06C428.131 642.717 419.783 648.345 411.423 653.93C403.714 660.201 396.005 666.44 388.285 672.637C381.194 679.551 374.099 686.434 366.996 693.266C360.534 700.82 354.067 708.328 347.597 715.793C341.763 723.997 335.929 732.166 330.091 740.27C324.919 749.086 319.746 757.851 314.567 766.56C310.03 776.036 305.497 785.449 300.954 794.807C297.079 804.913 293.204 814.958 289.315 824.931C286.084 835.73 282.852 846.461 279.602 857.117C277.048 868.519 274.489 879.854 271.908 891.096C270.022 903.145 268.125 915.113 266.206 926.983C264.993 939.669 263.765 952.265 262.508 964.758C261.971 978.065 261.409 991.272 260.817 1004.37C260.942 1017.01 261.045 1029.56 261.115 1042H260.608C260.328 1037.01 260.045 1031.99 259.758 1026.97C259.512 1032 259.258 1037.01 259.001 1042H258.453C257.784 1035.37 257.112 1028.72 256.435 1022.05C255.799 1027.71 255.152 1033.34 254.494 1038.94L254.924 1042H254.608L254.347 1040.16L254.13 1042H253.818L254.178 1038.95L253.237 1032.27L250.925 1015.82C249.917 1021.26 248.899 1026.67 247.866 1032.04L249.623 1042H249.307L247.701 1032.91C247.116 1035.95 246.528 1038.98 245.936 1042H245.616C246.263 1038.69 246.91 1035.37 247.546 1032.04C246.112 1023.91 244.675 1015.75 243.234 1007.56C240.102 1019.2 236.904 1030.69 233.632 1042H233.308C236.65 1030.45 239.911 1018.72 243.105 1006.84C241.668 998.644 240.227 990.429 238.789 982.192C231.489 1002.68 223.971 1022.65 216.155 1042.01H215.821C223.717 1022.46 231.312 1002.28 238.683 981.57C237.242 973.323 235.804 965.061 234.371 956.775C220.824 986.516 206.766 1015.04 191.922 1042.01H191.561C206.505 1014.87 220.651 986.169 234.279 956.228C232.849 947.963 231.422 939.672 230.003 931.368C207.446 970.975 183.871 1008.16 158.531 1042H158.13C183.592 1008.03 207.266 970.679 229.919 930.882C228.496 922.577 227.084 914.255 225.673 905.918C190.146 956.521 152.741 1002.65 111.66 1042H111.193C152.429 1002.55 189.959 956.264 225.599 905.479C224.195 897.153 222.794 888.82 221.401 880.465C166.608 944.339 108.399 1000.08 42.5364 1042H41.9408C108.02 1000.02 166.394 944.132 221.335 880.061C219.949 871.725 218.574 863.373 217.203 855.015C129.533 939.026 34.9855 1006.7 -77.741 1042H-78.8512C34.3422 1006.78 129.199 938.929 217.14 854.64C215.777 846.296 214.427 837.942 213.086 829.58C92.8413 924.336 -37.7294 994.606 -198 1011V1010.68C-37.7515 994.274 92.8008 923.992 213.038 829.223C211.7 820.879 210.376 812.524 209.064 804.166C86.6102 883.259 -44.5451 941.756 -198 957.286V956.968C-44.5671 941.431 86.5697 882.924 209.012 803.827C207.707 795.486 206.413 787.139 205.134 778.781C81.1951 843.909 -50.074 891.725 -198 905.232V904.918C-50.0924 891.407 81.1584 843.588 205.086 778.463C203.814 770.13 202.561 761.789 201.325 753.442C76.4602 806.142 -54.5847 844.295 -197.996 854.99V854.679C-54.5994 843.981 76.4271 805.828 201.281 753.131C200.046 744.809 198.829 736.482 197.631 728.156C72.273 769.819 -58.3013 799.242 -197.996 806.632V806.321C-58.316 798.931 72.2436 769.508 197.583 727.849C196.388 719.545 195.212 711.24 194.058 702.932C68.5417 734.778 -61.404 756.29 -197.996 760.092V759.785C-61.4187 755.979 68.5123 734.471 194.014 702.628C192.863 694.345 191.738 686.058 190.631 677.775C65.189 700.892 -64.0105 715.292 -197.996 715.396V715.089L-198 715.081Z" fill="white" fill-opacity="0.3"/>
</svg>
